# xmcd
#
# Track frame offsets:
#	150
#	30855
#	59268
#	82230
#	105764
#	136339
#	164545
#	190852
#	214890
#	241974
#	261447
#	280787
#	297867
#	312800
#	327295
#
# Disc length: 4586 seconds
#
# Revision: 1
# Processed by: cddbd v1.5.2PL0 Copyright (c) Steve Scherf et al.
# Submitted via: EasyCDDAExtractor 16.0.6.1
#
DISCID=d411e80f
DTITLE=Lester Young - Neenah - Cd 03
DYEAR=2014
DGENRE=Blues
TTITLE0=This year's kisses
TTITLE1=Pres returns
TTITLE2=All of me
TTITLE3=Louise
TTITLE4=Love me or leave me
TTITLE5=Flic
TTITLE6=Love is here to stay
TTITLE7=You're getting to be a habit with me
TTITLE8=They can't take that away from me
TTITLE9=I didn't know what time it was
TTITLE10=Three little words
TTITLE11=I cover the waterfront
TTITLE12=Pennies from heaven
TTITLE13=New D. B. blues
TTITLE14=Lullaby of birdland
EXTD=
EXTT0=
EXTT1=
EXTT2=
EXTT3=
EXTT4=
EXTT5=
EXTT6=
EXTT7=
EXTT8=
EXTT9=
EXTT10=
EXTT11=
EXTT12=
EXTT13=
EXTT14=
PLAYORDER=
